<svg width="150" height="150" viewBox="0 0 150 150" fill="none" xmlns="http://www.w3.org/2000/svg">
<mask id="mask0_308_17" style="mask-type:alpha" maskUnits="userSpaceOnUse" x="0" y="0" width="150" height="150">
<rect width="150" height="150" fill="#D9D9D9"/>
</mask>
<g mask="url(#mask0_308_17)">
<rect x="-34" width="219" height="150" rx="4" fill="url(#paint0_linear_308_17)"/>
<path d="M61.3319 111.055L62.6743 102.54L59.6845 102.47H45.4079L55.3295 39.6318C55.3598 39.4421 55.4602 39.2652 55.6065 39.1396C55.7528 39.014 55.9404 38.9448 56.1355 38.9448H80.208C88.2 38.9448 93.7148 40.606 96.5945 43.8846C97.9442 45.4227 98.8042 47.03 99.2201 48.7988C99.656 50.6548 99.6641 52.8722 99.2378 55.5766L99.2068 55.774V57.5069L100.557 58.2709C101.694 58.8732 102.597 59.5628 103.29 60.3524C104.445 61.6674 105.192 63.3388 105.508 65.3203C105.834 67.3583 105.726 69.7833 105.192 72.5288C104.576 75.6871 103.58 78.4377 102.236 80.6884C100.998 82.7622 99.4225 84.482 97.552 85.8154C95.7656 87.0816 93.6432 88.0431 91.2437 88.6586C88.918 89.2629 86.2674 89.5684 83.3596 89.5684H81.4861C80.1467 89.5684 78.845 90.0503 77.8241 90.9144C76.8001 91.7962 76.1219 93.0005 75.9144 94.3184L75.7733 95.0851L73.4018 110.094L73.294 110.645C73.2659 110.82 73.2171 110.907 73.1455 110.966C73.0812 111.019 72.9888 111.055 72.8987 111.055H61.3319Z" fill="#253B80"/>
<path d="M101.829 55.9774C101.758 56.4363 101.676 56.9054 101.583 57.3873C98.4082 73.6679 87.5476 79.2922 73.6759 79.2922H66.6133C64.9171 79.2922 63.4876 80.5226 63.2231 82.194L59.6069 105.101L58.5829 111.594C58.4108 112.692 59.2582 113.681 60.3663 113.681H72.8935C74.3769 113.681 75.6365 112.605 75.87 111.144L75.9934 110.507L78.3522 95.5572L78.5037 94.7373C78.7342 93.2711 79.9967 92.1945 81.4801 92.1945H83.3537C95.49 92.1945 104.991 87.2726 107.768 73.0296C108.928 67.0798 108.328 62.1118 105.258 58.6178C104.329 57.5642 103.177 56.69 101.829 55.9774Z" fill="#ADC9E3"/>
<path d="M98.5021 54.6509C98.0174 54.5098 97.5165 54.3817 97.0031 54.2663C96.4875 54.1536 95.9585 54.0536 95.4148 53.9664C93.5102 53.6588 91.424 53.5127 89.1885 53.5127H70.3205C69.8558 53.5127 69.4148 53.6178 69.0195 53.8075C68.1493 54.2253 67.5029 55.0482 67.3462 56.0556L63.3318 81.4494L63.2166 82.1902C63.481 80.5188 64.9105 79.2884 66.6067 79.2884H73.6693C87.541 79.2884 98.4023 73.6616 101.577 57.3835C101.671 56.9016 101.751 56.4325 101.823 55.9737C101.02 55.5481 100.149 55.1841 99.2127 54.8739C98.9822 54.797 98.7436 54.7227 98.5021 54.6509Z" fill="#E6EFF6"/>
<path d="M67.3573 56.0573C67.5139 55.0499 68.161 54.227 69.0306 53.8117C69.4287 53.622 69.8676 53.5169 70.3315 53.5169H89.2002C91.4357 53.5169 93.522 53.663 95.4258 53.9706C95.9703 54.0578 96.4992 54.1578 97.0149 54.2705C97.5283 54.3859 98.0284 54.5141 98.5138 54.6551C98.7547 54.7269 98.9933 54.8012 99.2267 54.8756C100.163 55.1857 101.034 55.5523 101.837 55.9753C102.782 49.9588 101.829 45.8624 98.5729 42.153C94.9825 38.0694 88.5021 36.3212 80.2102 36.3212H56.1369C54.443 36.3212 52.9987 37.5516 52.7364 39.2255L42.7099 102.71C42.5119 103.966 43.4819 105.099 44.7497 105.099H59.6121L63.3436 81.451L67.3573 56.0573Z" fill="white"/>
</g>
<defs>
<linearGradient id="paint0_linear_308_17" x1="-33.9022" y1="0.0732423" x2="184.938" y2="150.306" gradientUnits="userSpaceOnUse">
<stop stop-color="#0096D8"/>
<stop offset="1" stop-color="#003087"/>
</linearGradient>
</defs>
</svg>
