<svg width="150" height="150" viewBox="0 0 150 150" fill="none" xmlns="http://www.w3.org/2000/svg">
<mask id="mask0_316_8" style="mask-type:alpha" maskUnits="userSpaceOnUse" x="0" y="0" width="150" height="150">
<rect width="150" height="150" fill="#D9D9D9"/>
</mask>
<g mask="url(#mask0_316_8)">
<rect width="150" height="150" rx="4" fill="#00C3F7"/>
<path d="M47.4444 111H107.279C109.288 111 111 109.281 111 107.188V100.387C111 98.2947 109.288 96.5758 107.279 96.5758H47.4444C45.3607 96.5758 43.7234 98.2947 43.649 100.387V107.114C43.649 109.281 45.3607 111 47.4444 111V111ZM47.4444 73.2579H107.279C108.246 73.2579 109.214 72.8842 109.884 72.1368C110.628 71.3895 111 70.4926 111 69.4463V62.6453C111 60.5526 109.288 58.8337 107.279 58.8337H47.4444C45.3607 58.8337 43.7234 60.4779 43.649 62.6453V69.4463C43.7234 71.6137 45.3607 73.2579 47.4444 73.2579V73.2579ZM73.5662 54.4242H107.279C108.246 54.4242 109.214 54.0505 109.884 53.3032C110.553 52.5558 111 51.659 111 50.6126V43.8116C111 41.719 109.288 40 107.279 40H73.6406C71.5569 40 69.9196 41.7189 69.9196 43.7368V50.5379C69.8452 52.78 71.4824 54.499 73.5662 54.4242V54.4242ZM43.649 92.1663H107.279C108.246 92.1663 109.214 91.7926 109.884 91.0453C110.553 90.2979 111 89.4011 111 88.3547V81.5537C111 79.4611 109.288 77.7421 107.279 77.7421H43.7234C41.6396 77.7421 40.0023 79.4611 40.0023 81.5537V88.3547C39.9279 90.4474 41.6396 92.0916 43.649 92.1663V92.1663Z" fill="white"/>
</g>
</svg>
