<svg width="150" height="150" viewBox="0 0 150 150" fill="none" xmlns="http://www.w3.org/2000/svg">
<mask id="mask0_308_18" style="mask-type:alpha" maskUnits="userSpaceOnUse" x="0" y="0" width="150" height="150">
<rect width="150" height="150" fill="#D9D9D9"/>
</mask>
<g mask="url(#mask0_308_18)">
<rect x="-33" y="1" width="217" height="149" rx="4" fill="#6461FC"/>
<path fill-rule="evenodd" clip-rule="evenodd" d="M79.9858 59.5531L71.8741 61.2963V54.7109L79.9858 53V59.5531ZM47.0221 56.7446L39.1367 58.4232L39.1044 84.2805C39.1044 89.0581 42.6916 92.5768 47.4745 92.5768C50.1245 92.5768 52.0636 92.0926 53.13 91.5115V84.9584C52.0959 85.3781 46.9898 86.863 46.9898 82.0854V70.6255H53.13V63.7496H46.9898L47.0221 56.7446ZM133.341 77.9857C133.341 69.7217 129.334 63.2008 121.674 63.2008C113.983 63.2008 109.329 69.7217 109.329 77.9211C109.329 87.6378 114.823 92.5445 122.709 92.5445C126.554 92.5445 129.463 91.6729 131.66 90.4463V83.99C129.463 85.0876 126.942 85.7655 123.743 85.7655C120.608 85.7655 117.829 84.6679 117.473 80.8587H133.276C133.276 80.6809 133.288 80.2772 133.301 79.812L133.301 79.8109C133.319 79.1782 133.341 78.432 133.341 77.9857ZM117.376 74.919C117.376 71.2712 119.606 69.754 121.642 69.754C123.613 69.754 125.714 71.2712 125.714 74.919H117.376ZM27.9232 70.206C26.2104 70.206 25.1762 70.6902 25.1762 71.9492C25.1762 73.3238 26.956 73.9284 29.164 74.6786C32.7636 75.9016 37.5013 77.5112 37.5213 83.4736C37.5213 89.252 32.9 92.5769 26.178 92.5769C23.3988 92.5769 20.361 92.0282 17.3555 90.7369V83.0539C20.0701 84.5389 23.4957 85.6365 26.178 85.6365C27.9878 85.6365 29.2805 85.1522 29.2805 83.6673C29.2805 82.1447 27.3512 81.4487 25.022 80.6085C21.4747 79.3289 17 77.7147 17 72.3365C17 66.6227 21.3628 63.2009 27.9232 63.2009C30.6055 63.2009 33.2555 63.6206 35.9378 64.6859V72.272C33.4817 70.9484 30.3793 70.206 27.9232 70.206ZM63.1811 66.1385L62.664 63.7497H55.6835V91.9958H63.7628V72.853C65.6695 70.3673 68.9012 70.8193 69.903 71.1744V63.7497C68.8689 63.3623 65.0878 62.6521 63.1811 66.1385ZM71.8736 63.7497H79.9852V91.9958H71.8736V63.7497ZM90.5205 65.7188C91.6516 64.6858 93.6876 63.2008 96.8546 63.2008C102.51 63.2008 107.842 68.3013 107.875 77.6629C107.875 87.8961 102.607 92.5446 96.8223 92.5446C93.9784 92.5446 92.2656 91.3502 91.1022 90.5109L91.0699 99.6465L82.9906 101.357V63.7173H90.1004L90.5205 65.7188ZM91.1021 83.9254C91.8777 84.7648 93.0088 85.4427 94.9155 85.4427C97.8887 85.4427 99.8923 82.2145 99.8923 77.8889C99.8923 73.66 97.8564 70.3673 94.9155 70.3673C93.0734 70.3673 91.91 71.0129 91.0698 71.9491L91.1021 83.9254Z" fill="white"/>
</g>
</svg>
