<svg width="250" height="250" viewBox="0 0 250 250" fill="none" xmlns="http://www.w3.org/2000/svg">
<circle cx="125" cy="125" r="125" fill="url(#paint0_linear_507_279)"/>
<path d="M202.684 111.084L160.675 90.5856C160.177 90.3363 159.92 89.8304 159.664 89.3245L138.916 47.3163C135.368 39.9777 126.262 36.9354 118.917 40.4764C115.942 41.933 113.537 44.3399 112.084 47.3163L91.3363 89.3245C91.0599 89.7903 90.7193 90.2148 90.3245 90.5856L48.3163 111.34C40.9777 114.881 37.9354 123.994 41.4764 131.333C42.9362 134.307 45.3419 136.713 48.3163 138.173L90.3245 158.664C90.8233 158.92 91.0798 159.426 91.3363 159.675L112.34 201.684C115.881 209.022 124.994 212.065 132.333 208.524C135.308 207.067 137.712 204.66 139.166 201.684L159.664 159.675C159.92 159.177 160.426 158.664 160.675 158.664L202.684 137.916C210.022 134.368 213.065 125.262 209.524 117.924C208.255 114.881 205.726 112.609 202.684 111.084ZM171.562 114.126L152.076 131.083C148.278 134.624 145.492 139.177 144.481 144.243L139.422 169.543C139.166 170.562 138.154 171.325 137.142 171.068C136.636 171.068 136.38 170.812 136.13 170.306L119.173 150.819C115.632 147.022 111.072 144.243 106.013 143.224L80.706 138.166C79.6942 137.916 78.9319 136.897 79.1884 135.886C79.1884 135.387 79.4377 135.13 79.9436 134.874L99.4301 117.917C103.228 114.376 106.013 109.823 107.025 104.757L112.084 79.4566C112.34 78.4377 113.352 77.6754 114.364 77.9319C114.744 77.9953 115.097 78.1715 115.376 78.4377L132.333 97.9243C135.874 101.722 140.434 104.508 145.492 105.519L170.8 110.578C171.812 110.835 172.574 111.846 172.318 112.858C172.188 113.343 171.927 113.782 171.562 114.126V114.126Z" fill="white"/>
<defs>
<linearGradient id="paint0_linear_507_279" x1="220" y1="211" x2="61" y2="46" gradientUnits="userSpaceOnUse">
<stop stop-color="#FF8F0D"/>
<stop offset="1" stop-color="#FE19FE"/>
</linearGradient>
</defs>
</svg>
