<svg width="250" height="250" viewBox="0 0 250 250" fill="none" xmlns="http://www.w3.org/2000/svg">
<circle cx="125" cy="125" r="125" fill="#161B22"/>
<path d="M125.5 42C78.2898 42 40 80.2826 40 127.5C40 165.277 64.4957 197.325 98.4749 208.632C102.743 209.423 104.125 206.773 104.125 204.521V188.604C80.3417 193.777 75.3899 178.515 75.3899 178.515C71.4996 168.633 65.8923 166.003 65.8923 166.003C58.1331 160.695 66.4836 160.809 66.4836 160.809C75.0693 161.408 79.5865 169.623 79.5865 169.623C87.2103 182.69 99.5864 178.914 104.467 176.727C105.229 171.205 107.445 167.429 109.896 165.298C90.9081 163.125 70.9439 155.793 70.9439 123.04C70.9439 113.699 74.2855 106.075 79.7504 100.09C78.8669 97.9312 75.9385 89.2316 80.584 77.4611C80.584 77.4611 87.766 75.1669 104.104 86.2249C110.922 84.3296 118.233 83.382 125.5 83.3464C132.767 83.382 140.085 84.3296 146.918 86.2249C163.241 75.1669 170.409 77.4611 170.409 77.4611C175.061 89.2388 172.133 97.9384 171.25 100.09C176.736 106.075 180.049 113.706 180.049 123.04C180.049 155.879 160.049 163.111 141.011 165.227C144.075 167.877 146.875 173.079 146.875 181.059V204.521C146.875 206.794 148.243 209.466 152.582 208.625C186.533 197.304 211 165.263 211 127.5C211 80.2826 172.717 42 125.5 42Z" fill="white"/>
</svg>
