<svg width="150" height="150" viewBox="0 0 150 150" fill="none" xmlns="http://www.w3.org/2000/svg">
<mask id="mask0_20_2" style="mask-type:alpha" maskUnits="userSpaceOnUse" x="0" y="0" width="150" height="150">
<path d="M0 47.9452C0 21.4658 21.4658 0 47.9452 0H102.055C128.534 0 150 21.4658 150 47.9452V102.055C150 128.534 128.534 150 102.055 150H47.9452C21.4658 150 0 128.534 0 102.055V47.9452Z" fill="#1145FF"/>
</mask>
<g mask="url(#mask0_20_2)">
<path d="M0 47.9452C0 21.4658 21.4658 0 47.9452 0H102.055C128.534 0 150 21.4658 150 47.9452V102.055C150 128.534 128.534 150 102.055 150H47.9452C21.4658 150 0 128.534 0 102.055V47.9452Z" fill="url(#paint0_linear_20_2)"/>
<path d="M-25.4002 81.2987C-30.4003 65.0271 -21.2629 47.783 -4.99133 42.783L61.9829 22.2026C78.2545 17.2025 95.4986 26.3399 100.499 42.6115L121.079 109.586C126.079 125.857 116.942 143.101 100.67 148.101L33.6959 168.682C17.4243 173.682 0.180261 164.545 -4.8198 148.273L-25.4002 81.2987Z" fill="#4D74FF"/>
<path d="M-50.6849 103.082C-50.6849 82.2769 -33.819 65.4109 -13.0137 65.4109H61.6438C82.4491 65.4109 99.3151 82.2769 99.3151 103.082V177.74C99.3151 198.545 82.4491 215.411 61.6438 215.411H-13.0137C-33.819 215.411 -50.6849 198.545 -50.6849 177.74V103.082Z" fill="#89A3FF"/>
</g>
<defs>
<linearGradient id="paint0_linear_20_2" x1="75" y1="0" x2="75" y2="150" gradientUnits="userSpaceOnUse">
<stop stop-color="#1145FF"/>
<stop offset="1" stop-color="#567BFF"/>
</linearGradient>
</defs>
</svg>
