<svg width="56" height="56" viewBox="0 0 56 56" fill="none" xmlns="http://www.w3.org/2000/svg">
<path d="M25.2445 4L25.9882 4.0054C28.969 4.05091 30.5142 4.38981 32.1148 5.24581C33.5755 6.02704 34.7507 7.15692 35.5897 8.59219L35.7643 8.90441L35.9145 9.19581C36.6882 10.7538 36.9823 12.3867 36.9993 15.4788C37.0038 16.3072 36.3359 16.9824 35.5075 16.987C34.6791 16.9915 34.0038 16.3236 33.9993 15.4952L33.9914 14.8567C33.9504 12.8252 33.7627 11.7373 33.3642 10.8215L33.2383 10.5512L33.1087 10.3C32.5513 9.25771 31.7423 8.44868 30.7 7.89125C29.5129 7.25637 28.3613 7.0184 25.5855 7.00104L19.7555 7C17.0176 7 15.7523 7.19962 14.6838 7.6979L14.5512 7.76175L14.3 7.89125C13.2577 8.44868 12.4487 9.25771 11.8913 10.3C11.2564 11.4871 11.0184 12.6387 11.001 15.4145L11 40.2445C11 42.9824 11.1996 44.2477 11.6979 45.3162L11.7617 45.4488L11.8913 45.7C12.4487 46.7423 13.2577 47.5513 14.3 48.1087C15.4001 48.6971 16.4339 48.9343 18.7384 48.9885L19.0606 48.9948L19.7555 49H21.5194C22.3478 49 23.0194 49.6716 23.0194 50.5C23.0194 51.3284 22.3478 52 21.5194 52H19.7443L19.026 51.9945C16.0373 51.9478 14.5002 51.6179 12.8852 50.7542C11.4245 49.973 10.2493 48.8431 9.41033 47.4078L9.23573 47.0956L9.08547 46.8042C8.35463 45.3324 8.04979 43.7881 8.0057 41.0006L8 40.2445V15.7555L8.0054 15.0118C8.05091 12.031 8.38981 10.4858 9.24581 8.88522C10.027 7.42445 11.1569 6.24927 12.5922 5.41033L12.9044 5.23573L13.1958 5.08547C14.6676 4.35463 16.2119 4.04979 18.9994 4.0057L19.7555 4H25.2445ZM36 20C44.8366 20 52 27.1634 52 36C52 44.8366 44.8366 52 36 52C27.1634 52 20 44.8366 20 36C20 27.1634 27.1634 20 36 20ZM36 23C28.8203 23 23 28.8203 23 36C23 43.1797 28.8203 49 36 49C43.1797 49 49 43.1797 49 36C49 28.8203 43.1797 23 36 23ZM42.8607 31.3393C43.4098 31.8885 43.4442 32.7576 42.9636 33.3467L42.8607 33.4607L34.8607 41.4607C34.3115 42.0098 33.4424 42.0442 32.8533 41.5636L32.7393 41.4607L29.5393 38.2607C28.9536 37.6749 28.9536 36.7251 29.5393 36.1393C30.0885 35.5902 30.9576 35.5558 31.5467 36.0364L31.6607 36.1393L33.8 38.279L40.7393 31.3393C41.3251 30.7536 42.2749 30.7536 42.8607 31.3393Z" fill="#41D6A0"/>
</svg>
