<svg width="150" height="150" viewBox="0 0 150 150" fill="none" xmlns="http://www.w3.org/2000/svg">
<path d="M74.9997 145.145C36.252 145.145 4.85541 113.731 4.85541 75.0006C4.85541 36.2541 36.2695 4.85632 74.9997 4.85632C109.395 4.85632 137.991 29.6091 143.989 62.2507C151.93 105.526 118.699 145.145 74.9997 145.145V145.145Z" fill="#73B8FF"/>
<path d="M143.989 62.2507C146.537 76.1365 144.91 90.8218 138.831 104.123C101.486 126.511 48.7597 126.635 11.2137 104.095C11.0961 104.147 1.67891 85.7076 6.02544 62.1781C46.4186 88.7924 103.147 89.0833 143.989 62.2507V62.2507Z" fill="#8BC4FF"/>
<path d="M124.418 25.2222C134.353 35.0847 141.353 47.9042 143.989 62.2505C103.395 88.9202 46.6656 88.9549 6.02545 62.1779C8.66796 47.8618 15.6612 35.0696 25.5812 25.2222C54.4858 44.0218 95.5063 44.0266 124.418 25.2222V25.2222Z" fill="#A2D0FF"/>
<path d="M124.418 25.2224C95.5136 44.022 54.4933 44.0268 25.5812 25.2224C52.9571 -1.95733 97.084 -1.91651 124.418 25.2224Z" fill="#D1E7FF"/>
<path d="M71.2143 145.045C44.4869 143.624 21.7293 127.24 11.1653 104.116C11.6062 103.924 30.8916 117.693 63.5831 120.476C64.609 129.299 67.2832 137.65 71.2143 145.045Z" fill="#8BC4FF"/>
<path d="M63.5831 120.477C36.3477 118.158 17.7202 108.002 11.2137 104.096C11.0961 104.147 1.67891 85.7078 6.02544 62.1783C14.1495 67.5299 36.9464 80.9147 69.89 82.1634C64.1367 94.2431 62.0704 107.561 63.5831 120.477V120.477Z" fill="#A2D0FF"/>
<path d="M137.044 42.2473C108.527 40.6669 82.0625 56.6081 69.89 82.163C36.9464 80.9143 14.1495 67.5295 6.02545 62.1779C8.66796 47.8618 15.6612 35.0696 25.5812 25.2222C54.4846 44.0214 95.5063 44.0269 124.418 25.2222C129.437 30.2048 133.706 35.9403 137.044 42.2473V42.2473Z" fill="#B9DCFF"/>
<path d="M51.3502 141.057C33.4936 134.666 18.987 121.238 11.1653 104.117C11.3927 104.017 18.2711 108.816 31.1353 113.435C35.3627 123.884 42.2293 133.478 51.3502 141.057Z" fill="#A2D0FF"/>
<path d="M31.1353 113.435C17.4892 108.535 11.4919 103.974 11.1653 104.117C5.02197 90.6702 3.48272 75.9442 6.02545 62.1783C9.92874 64.7513 17.2183 69.1746 27.3923 73.217C24.6733 86.9287 26.0332 100.854 31.1353 113.435Z" fill="#B9DCFF"/>
<path d="M48.5444 35.5926C37.9218 45.3741 30.3353 58.5531 27.3923 73.2166C17.2183 69.1742 9.92874 64.7509 6.02545 62.1779C8.66796 47.8619 15.6612 35.0696 25.5812 25.2222C28.8465 27.348 36.8224 32.1795 48.5444 35.5926V35.5926Z" fill="#D1E7FF"/>
<path d="M119.807 21.0318C95.8963 12.4775 68.2586 17.3511 48.5444 35.5928C36.8224 32.1793 28.8465 27.3478 25.5812 25.2223C51.2812 -0.293569 92.0843 -2.00878 119.807 21.0318Z" fill="#E8F3FF"/>
</svg>
