<svg width="110" height="110" viewBox="0 0 110 110" fill="none" xmlns="http://www.w3.org/2000/svg">
<mask id="mask0" mask-type="alpha" maskUnits="userSpaceOnUse" x="0" y="0" width="110" height="110">
<path d="M0 20C0 8.95431 8.95431 0 20 0H90C101.046 0 110 8.95431 110 20V90C110 101.046 101.046 110 90 110H20C8.95431 110 0 101.046 0 90V20Z" fill="#2787F5"/>
</mask>
<g mask="url(#mask0)">
<path d="M0 20C0 8.95431 8.95431 0 20 0H90C101.046 0 110 8.95431 110 20V90C110 101.046 101.046 110 90 110H20C8.95431 110 0 101.046 0 90V20Z" fill="#2787F5"/>
<path d="M55.4997 156.566C20.1101 156.566 -8.56543 127.874 -8.56543 92.5006C-8.56543 57.112 20.1261 28.4354 55.4997 28.4354C86.9143 28.4354 113.031 51.043 118.51 80.8556C125.762 120.38 95.412 156.566 55.4997 156.566V156.566Z" fill="#73B8FF"/>
<path d="M118.51 80.8556C120.837 93.538 119.351 106.951 113.799 119.099C79.6906 139.547 31.5338 139.66 -2.75815 119.074C-2.86557 119.121 -11.4666 102.28 -7.49677 80.7893C29.3956 105.097 81.208 105.363 118.51 80.8556V80.8556Z" fill="#8BC4FF"/>
<path d="M100.635 47.0364C109.709 56.0442 116.102 67.7526 118.51 80.8556C81.4345 105.214 29.6213 105.246 -7.49677 80.7893C-5.08328 67.714 1.30391 56.0303 10.3642 47.0364C36.7637 64.2067 74.2291 64.2111 100.635 47.0364V47.0364Z" fill="#A2D0FF"/>
<path d="M100.635 47.0364C74.2358 64.2067 36.7706 64.2111 10.3642 47.0364C35.3675 22.2123 75.67 22.2496 100.635 47.0364Z" fill="#D1E7FF"/>
<path d="M45.0726 134.035C20.1976 131.917 3.18444 122.642 -2.75815 119.074C-2.86557 119.121 -11.4666 102.28 -7.49677 80.7896C-0.076806 85.6773 20.7444 97.9021 50.8329 99.0426C45.5782 110.075 43.691 122.239 45.0726 134.035V134.035Z" fill="#A2D0FF"/>
<path d="M112.167 62.586C86.1212 61.1426 61.9504 75.7022 50.8329 99.0424C20.7444 97.9019 -0.0768053 85.677 -7.49677 80.7893C-5.08328 67.714 1.30391 56.0303 10.3642 47.0364C36.7626 64.2064 74.2291 64.2114 100.635 47.0364C105.219 51.5872 109.118 56.8256 112.167 62.586V62.586Z" fill="#B9DCFF"/>
<path d="M15.4369 127.604C2.97347 123.129 -2.5041 118.963 -2.80234 119.093C-8.41328 106.812 -9.81913 93.3623 -7.49677 80.7896C-3.93176 83.1395 2.72604 87.1795 12.0183 90.8715C9.5349 103.395 10.777 116.113 15.4369 127.604Z" fill="#B9DCFF"/>
<path d="M31.3372 56.5081C21.6352 65.4419 14.7062 77.4786 12.0183 90.8713C2.72604 87.1793 -3.93176 83.1393 -7.49677 80.7893C-5.08328 67.714 1.30391 56.0304 10.3642 47.0364C13.3465 48.9779 20.6311 53.3907 31.3372 56.5081V56.5081Z" fill="#D1E7FF"/>
<path d="M96.4241 43.2091C74.5853 35.3962 49.3428 39.8473 31.3372 56.5081C20.6312 53.3905 13.3465 48.9777 10.3642 47.0364C33.8369 23.7319 71.1037 22.1653 96.4241 43.2091Z" fill="#E8F3FF"/>
</g>
</svg>
